<svg xmlns="http://www.w3.org/2000/svg" viewBox="0 0 480 90" width="480" height="90"><g transform="translate(46 45)"><path stroke="#fff" stroke-width=".7" opacity=".16" stroke-dasharray="2.5 4" d="M0-36-28 0m0 0L0 36"/><path stroke="#fff" stroke-width="2.8" stroke-linecap="round" d="M0-36 38 0m0 0L0 36"/><path stroke="#fff" stroke-width="5" stroke-linecap="round" d="M0-36v72"/><path stroke="#fff" stroke-width=".5" opacity=".2" d="M0 0h38"/><path fill="#fff" opacity=".06" d="M0-36 38 0H0z"/><path fill="#fff" opacity=".04" d="M0 0h38L0 36z"/><circle cy="-36" r="3.5" fill="#fff" opacity=".95"/><circle cy="36" r="3.5" fill="#fff" opacity=".95"/><circle cx="-28" r="1.8" fill="#fff" opacity=".22"/><path fill="#fff" opacity=".95" d="M38-6.5 40.5 0 38 6.5 35.5 0z"/><path fill="#fff" opacity=".95" d="M31.5 0 38-3l6.5 3L38 3z"/><circle cx="38" r="2" fill="#fff" opacity=".9"/></g><text x="108" y="38" font-family="'Josefin Sans', 'Gill Sans', Arial, sans-serif" font-weight="300" font-size="22" fill="#fff" letter-spacing="7">DAZZLE</text><path stroke="#fff" stroke-width=".4" opacity=".18" d="M108 47h350"/><text x="110" y="61" font-family="'Josefin Sans', 'Gill Sans', Arial, sans-serif" font-weight="100" font-size="11" fill="#888" letter-spacing="9">CRYSTALS</text><path fill="#fff" opacity=".45" d="m442 18 1.2 4-1.2 4-1.2-4z"/><path fill="#fff" opacity=".45" d="m437 22 5-1.8 5 1.8-5 1.8z"/><circle cx="458" cy="38" r="1.2" fill="#fff" opacity=".3"/><circle cx="450" cy="58" r="1" fill="#fff" opacity=".22"/></svg>